<mxfile host="app.diagrams.net" modified="2021-10-17T07:09:52.505Z" agent="5.0 (Windows NT 10.0; Win64; x64) AppleWebKit/537.36 (KHTML, like Gecko) Chrome/93.0.4577.82 YaBrowser/21.9.1.684 Yowser/2.5 Safari/537.36" etag="YdjwfYORzCUtrrSOihVO" version="15.5.4" type="github">
  <diagram id="BUPO54RhHHGszOePQAVA" name="Page-1">
    <mxGraphModel dx="1054" dy="585" grid="1" gridSize="10" guides="1" tooltips="1" connect="1" arrows="1" fold="1" page="1" pageScale="1" pageWidth="827" pageHeight="1169" math="0" shadow="0">
      <root>
        <mxCell id="0" />
        <mxCell id="1" parent="0" />
        <mxCell id="heb5y5Hdo2-2Dbb21qf2-6" style="edgeStyle=orthogonalEdgeStyle;rounded=0;orthogonalLoop=1;jettySize=auto;html=1;" edge="1" parent="1" source="heb5y5Hdo2-2Dbb21qf2-1" target="heb5y5Hdo2-2Dbb21qf2-5">
          <mxGeometry relative="1" as="geometry" />
        </mxCell>
        <mxCell id="heb5y5Hdo2-2Dbb21qf2-7" style="edgeStyle=orthogonalEdgeStyle;rounded=0;orthogonalLoop=1;jettySize=auto;html=1;entryX=0.5;entryY=0;entryDx=0;entryDy=0;" edge="1" parent="1" source="heb5y5Hdo2-2Dbb21qf2-1" target="heb5y5Hdo2-2Dbb21qf2-4">
          <mxGeometry relative="1" as="geometry" />
        </mxCell>
        <mxCell id="heb5y5Hdo2-2Dbb21qf2-1" value="администратор" style="ellipse;whiteSpace=wrap;html=1;aspect=fixed;" vertex="1" parent="1">
          <mxGeometry x="400" y="30" width="100" height="100" as="geometry" />
        </mxCell>
        <mxCell id="heb5y5Hdo2-2Dbb21qf2-9" style="edgeStyle=orthogonalEdgeStyle;rounded=0;orthogonalLoop=1;jettySize=auto;html=1;entryX=1;entryY=0.5;entryDx=0;entryDy=0;" edge="1" parent="1" source="heb5y5Hdo2-2Dbb21qf2-3" target="heb5y5Hdo2-2Dbb21qf2-4">
          <mxGeometry relative="1" as="geometry" />
        </mxCell>
        <mxCell id="heb5y5Hdo2-2Dbb21qf2-3" value="повар" style="ellipse;whiteSpace=wrap;html=1;aspect=fixed;" vertex="1" parent="1">
          <mxGeometry x="410" y="240" width="80" height="80" as="geometry" />
        </mxCell>
        <mxCell id="heb5y5Hdo2-2Dbb21qf2-4" value="завхоз" style="ellipse;whiteSpace=wrap;html=1;aspect=fixed;" vertex="1" parent="1">
          <mxGeometry x="210" y="240" width="80" height="80" as="geometry" />
        </mxCell>
        <mxCell id="heb5y5Hdo2-2Dbb21qf2-8" style="edgeStyle=orthogonalEdgeStyle;rounded=0;orthogonalLoop=1;jettySize=auto;html=1;" edge="1" parent="1" source="heb5y5Hdo2-2Dbb21qf2-5" target="heb5y5Hdo2-2Dbb21qf2-3">
          <mxGeometry relative="1" as="geometry" />
        </mxCell>
        <mxCell id="heb5y5Hdo2-2Dbb21qf2-5" value="кассир" style="ellipse;whiteSpace=wrap;html=1;aspect=fixed;" vertex="1" parent="1">
          <mxGeometry x="610" y="240" width="80" height="80" as="geometry" />
        </mxCell>
      </root>
    </mxGraphModel>
  </diagram>
</mxfile>
